<svg width="511" height="288" viewBox="0 0 511 288" fill="none" xmlns="http://www.w3.org/2000/svg">
<rect width="185" height="182" fill="url(#paint0_linear_5_4796)"/>
<rect x="158" y="106" width="185" height="182" fill="url(#paint1_linear_5_4796)"/>
<path d="M326 78H511V260H326V78Z" fill="url(#paint2_linear_5_4796)"/>
<path d="M62.2785 25.53C63.3785 25.53 64.3435 25.745 65.1735 26.175C66.0135 26.605 66.6585 27.22 67.1085 28.02C67.5685 28.81 67.7985 29.73 67.7985 30.78C67.7985 31.83 67.5685 32.75 67.1085 33.54C66.6585 34.32 66.0135 34.925 65.1735 35.355C64.3435 35.785 63.3785 36 62.2785 36H58.6185V25.53H62.2785ZM62.2035 34.215C63.3035 34.215 64.1535 33.915 64.7535 33.315C65.3535 32.715 65.6535 31.87 65.6535 30.78C65.6535 29.69 65.3535 28.84 64.7535 28.23C64.1535 27.61 63.3035 27.3 62.2035 27.3H60.7185V34.215H62.2035ZM77.3204 27.69L72.1754 39.93H69.9404L71.7404 35.79L68.4104 27.69H70.7654L72.9104 33.495L75.0854 27.69H77.3204ZM83.0575 27.57C84.0475 27.57 84.8475 27.885 85.4575 28.515C86.0675 29.135 86.3725 30.005 86.3725 31.125V36H84.2725V31.41C84.2725 30.75 84.1075 30.245 83.7775 29.895C83.4475 29.535 82.9975 29.355 82.4275 29.355C81.8475 29.355 81.3875 29.535 81.0475 29.895C80.7175 30.245 80.5525 30.75 80.5525 31.41V36H78.4525V27.69H80.5525V28.725C80.8325 28.365 81.1875 28.085 81.6175 27.885C82.0575 27.675 82.5375 27.57 83.0575 27.57ZM87.8295 31.815C87.8295 30.975 87.9945 30.23 88.3245 29.58C88.6645 28.93 89.1195 28.43 89.6895 28.08C90.2695 27.73 90.9145 27.555 91.6245 27.555C92.2445 27.555 92.7845 27.68 93.2445 27.93C93.7145 28.18 94.0895 28.495 94.3695 28.875V27.69H96.4845V36H94.3695V34.785C94.0995 35.175 93.7245 35.5 93.2445 35.76C92.7745 36.01 92.2295 36.135 91.6095 36.135C90.9095 36.135 90.2695 35.955 89.6895 35.595C89.1195 35.235 88.6645 34.73 88.3245 34.08C87.9945 33.42 87.8295 32.665 87.8295 31.815ZM94.3695 31.845C94.3695 31.335 94.2695 30.9 94.0695 30.54C93.8695 30.17 93.5995 29.89 93.2595 29.7C92.9195 29.5 92.5545 29.4 92.1645 29.4C91.7745 29.4 91.4145 29.495 91.0845 29.685C90.7545 29.875 90.4845 30.155 90.2745 30.525C90.0745 30.885 89.9745 31.315 89.9745 31.815C89.9745 32.315 90.0745 32.755 90.2745 33.135C90.4845 33.505 90.7545 33.79 91.0845 33.99C91.4245 34.19 91.7845 34.29 92.1645 34.29C92.5545 34.29 92.9195 34.195 93.2595 34.005C93.5995 33.805 93.8695 33.525 94.0695 33.165C94.2695 32.795 94.3695 32.355 94.3695 31.845ZM108.855 27.57C109.875 27.57 110.695 27.885 111.315 28.515C111.945 29.135 112.26 30.005 112.26 31.125V36H110.16V31.41C110.16 30.76 109.995 30.265 109.665 29.925C109.335 29.575 108.885 29.4 108.315 29.4C107.745 29.4 107.29 29.575 106.95 29.925C106.62 30.265 106.455 30.76 106.455 31.41V36H104.355V31.41C104.355 30.76 104.19 30.265 103.86 29.925C103.53 29.575 103.08 29.4 102.51 29.4C101.93 29.4 101.47 29.575 101.13 29.925C100.8 30.265 100.635 30.76 100.635 31.41V36H98.5355V27.69H100.635V28.695C100.905 28.345 101.25 28.07 101.67 27.87C102.1 27.67 102.57 27.57 103.08 27.57C103.73 27.57 104.31 27.71 104.82 27.99C105.33 28.26 105.725 28.65 106.005 29.16C106.275 28.68 106.665 28.295 107.175 28.005C107.695 27.715 108.255 27.57 108.855 27.57ZM115.318 26.7C114.948 26.7 114.638 26.585 114.388 26.355C114.148 26.115 114.028 25.82 114.028 25.47C114.028 25.12 114.148 24.83 114.388 24.6C114.638 24.36 114.948 24.24 115.318 24.24C115.688 24.24 115.993 24.36 116.233 24.6C116.483 24.83 116.608 25.12 116.608 25.47C116.608 25.82 116.483 26.115 116.233 26.355C115.993 26.585 115.688 26.7 115.318 26.7ZM116.353 27.69V36H114.253V27.69H116.353ZM117.888 31.845C117.888 30.985 118.063 30.235 118.413 29.595C118.763 28.945 119.248 28.445 119.868 28.095C120.488 27.735 121.198 27.555 121.998 27.555C123.028 27.555 123.878 27.815 124.548 28.335C125.228 28.845 125.683 29.565 125.913 30.495H123.648C123.528 30.135 123.323 29.855 123.033 29.655C122.753 29.445 122.403 29.34 121.983 29.34C121.383 29.34 120.908 29.56 120.558 30C120.208 30.43 120.033 31.045 120.033 31.845C120.033 32.635 120.208 33.25 120.558 33.69C120.908 34.12 121.383 34.335 121.983 34.335C122.833 34.335 123.388 33.955 123.648 33.195H125.913C125.683 34.095 125.228 34.81 124.548 35.34C123.868 35.87 123.018 36.135 121.998 36.135C121.198 36.135 120.488 35.96 119.868 35.61C119.248 35.25 118.763 34.75 118.413 34.11C118.063 33.46 117.888 32.705 117.888 31.845ZM53.3722 48.53C54.4722 48.53 55.4372 48.745 56.2672 49.175C57.1072 49.605 57.7522 50.22 58.2022 51.02C58.6622 51.81 58.8922 52.73 58.8922 53.78C58.8922 54.83 58.6622 55.75 58.2022 56.54C57.7522 57.32 57.1072 57.925 56.2672 58.355C55.4372 58.785 54.4722 59 53.3722 59H49.7122V48.53H53.3722ZM53.2972 57.215C54.3972 57.215 55.2472 56.915 55.8472 56.315C56.4472 55.715 56.7472 54.87 56.7472 53.78C56.7472 52.69 56.4472 51.84 55.8472 51.23C55.2472 50.61 54.3972 50.3 53.2972 50.3H51.8122V57.215H53.2972ZM61.5292 49.7C61.1592 49.7 60.8492 49.585 60.5992 49.355C60.3592 49.115 60.2392 48.82 60.2392 48.47C60.2392 48.12 60.3592 47.83 60.5992 47.6C60.8492 47.36 61.1592 47.24 61.5292 47.24C61.8992 47.24 62.2042 47.36 62.4442 47.6C62.6942 47.83 62.8192 48.12 62.8192 48.47C62.8192 48.82 62.6942 49.115 62.4442 49.355C62.2042 49.585 61.8992 49.7 61.5292 49.7ZM62.5642 50.69V59H60.4642V50.69H62.5642ZM67.819 59.135C67.139 59.135 66.529 59.015 65.989 58.775C65.449 58.525 65.019 58.19 64.699 57.77C64.389 57.35 64.219 56.885 64.189 56.375H66.304C66.344 56.695 66.499 56.96 66.769 57.17C67.049 57.38 67.394 57.485 67.804 57.485C68.204 57.485 68.514 57.405 68.734 57.245C68.964 57.085 69.079 56.88 69.079 56.63C69.079 56.36 68.939 56.16 68.659 56.03C68.389 55.89 67.954 55.74 67.354 55.58C66.734 55.43 66.224 55.275 65.824 55.115C65.434 54.955 65.094 54.71 64.804 54.38C64.524 54.05 64.384 53.605 64.384 53.045C64.384 52.585 64.514 52.165 64.774 51.785C65.044 51.405 65.424 51.105 65.914 50.885C66.414 50.665 66.999 50.555 67.669 50.555C68.659 50.555 69.449 50.805 70.039 51.305C70.629 51.795 70.954 52.46 71.014 53.3H69.004C68.974 52.97 68.834 52.71 68.584 52.52C68.344 52.32 68.019 52.22 67.609 52.22C67.229 52.22 66.934 52.29 66.724 52.43C66.524 52.57 66.424 52.765 66.424 53.015C66.424 53.295 66.564 53.51 66.844 53.66C67.124 53.8 67.559 53.945 68.149 54.095C68.749 54.245 69.244 54.4 69.634 54.56C70.024 54.72 70.359 54.97 70.639 55.31C70.929 55.64 71.079 56.08 71.089 56.63C71.089 57.11 70.954 57.54 70.684 57.92C70.424 58.3 70.044 58.6 69.544 58.82C69.054 59.03 68.479 59.135 67.819 59.135ZM72.2728 54.845C72.2728 53.985 72.4478 53.235 72.7978 52.595C73.1478 51.945 73.6328 51.445 74.2528 51.095C74.8728 50.735 75.5828 50.555 76.3828 50.555C77.4128 50.555 78.2628 50.815 78.9328 51.335C79.6128 51.845 80.0678 52.565 80.2978 53.495H78.0328C77.9128 53.135 77.7078 52.855 77.4178 52.655C77.1378 52.445 76.7878 52.34 76.3678 52.34C75.7678 52.34 75.2928 52.56 74.9428 53C74.5928 53.43 74.4178 54.045 74.4178 54.845C74.4178 55.635 74.5928 56.25 74.9428 56.69C75.2928 57.12 75.7678 57.335 76.3678 57.335C77.2178 57.335 77.7728 56.955 78.0328 56.195H80.2978C80.0678 57.095 79.6128 57.81 78.9328 58.34C78.2528 58.87 77.4028 59.135 76.3828 59.135C75.5828 59.135 74.8728 58.96 74.2528 58.61C73.6328 58.25 73.1478 57.75 72.7978 57.11C72.4478 56.46 72.2728 55.705 72.2728 54.845ZM89.6813 50.69V59H87.5663V57.95C87.2963 58.31 86.9413 58.595 86.5013 58.805C86.0713 59.005 85.6013 59.105 85.0913 59.105C84.4413 59.105 83.8663 58.97 83.3663 58.7C82.8663 58.42 82.4713 58.015 82.1813 57.485C81.9013 56.945 81.7613 56.305 81.7613 55.565V50.69H83.8613V55.265C83.8613 55.925 84.0263 56.435 84.3563 56.795C84.6863 57.145 85.1363 57.32 85.7063 57.32C86.2863 57.32 86.7413 57.145 87.0713 56.795C87.4013 56.435 87.5663 55.925 87.5663 55.265V50.69H89.6813ZM94.9333 59.135C94.2533 59.135 93.6433 59.015 93.1033 58.775C92.5633 58.525 92.1333 58.19 91.8133 57.77C91.5033 57.35 91.3333 56.885 91.3033 56.375H93.4183C93.4583 56.695 93.6133 56.96 93.8833 57.17C94.1633 57.38 94.5083 57.485 94.9183 57.485C95.3183 57.485 95.6283 57.405 95.8483 57.245C96.0783 57.085 96.1933 56.88 96.1933 56.63C96.1933 56.36 96.0533 56.16 95.7733 56.03C95.5033 55.89 95.0683 55.74 94.4683 55.58C93.8483 55.43 93.3383 55.275 92.9383 55.115C92.5483 54.955 92.2083 54.71 91.9183 54.38C91.6383 54.05 91.4983 53.605 91.4983 53.045C91.4983 52.585 91.6283 52.165 91.8883 51.785C92.1583 51.405 92.5383 51.105 93.0283 50.885C93.5283 50.665 94.1133 50.555 94.7833 50.555C95.7733 50.555 96.5633 50.805 97.1533 51.305C97.7433 51.795 98.0683 52.46 98.1283 53.3H96.1183C96.0883 52.97 95.9483 52.71 95.6983 52.52C95.4583 52.32 95.1333 52.22 94.7233 52.22C94.3433 52.22 94.0483 52.29 93.8383 52.43C93.6383 52.57 93.5383 52.765 93.5383 53.015C93.5383 53.295 93.6783 53.51 93.9583 53.66C94.2383 53.8 94.6733 53.945 95.2633 54.095C95.8633 54.245 96.3583 54.4 96.7483 54.56C97.1383 54.72 97.4733 54.97 97.7533 55.31C98.0433 55.64 98.1933 56.08 98.2033 56.63C98.2033 57.11 98.0683 57.54 97.7983 57.92C97.5383 58.3 97.1583 58.6 96.6583 58.82C96.1683 59.03 95.5933 59.135 94.9333 59.135ZM103.107 59.135C102.427 59.135 101.817 59.015 101.277 58.775C100.737 58.525 100.307 58.19 99.9871 57.77C99.6771 57.35 99.5071 56.885 99.4771 56.375H101.592C101.632 56.695 101.787 56.96 102.057 57.17C102.337 57.38 102.682 57.485 103.092 57.485C103.492 57.485 103.802 57.405 104.022 57.245C104.252 57.085 104.367 56.88 104.367 56.63C104.367 56.36 104.227 56.16 103.947 56.03C103.677 55.89 103.242 55.74 102.642 55.58C102.022 55.43 101.512 55.275 101.112 55.115C100.722 54.955 100.382 54.71 100.092 54.38C99.8121 54.05 99.6721 53.605 99.6721 53.045C99.6721 52.585 99.8021 52.165 100.062 51.785C100.332 51.405 100.712 51.105 101.202 50.885C101.702 50.665 102.287 50.555 102.957 50.555C103.947 50.555 104.737 50.805 105.327 51.305C105.917 51.795 106.242 52.46 106.302 53.3H104.292C104.262 52.97 104.122 52.71 103.872 52.52C103.632 52.32 103.307 52.22 102.897 52.22C102.517 52.22 102.222 52.29 102.012 52.43C101.812 52.57 101.712 52.765 101.712 53.015C101.712 53.295 101.852 53.51 102.132 53.66C102.412 53.8 102.847 53.945 103.437 54.095C104.037 54.245 104.532 54.4 104.922 54.56C105.312 54.72 105.647 54.97 105.927 55.31C106.217 55.64 106.367 56.08 106.377 56.63C106.377 57.11 106.242 57.54 105.972 57.92C105.712 58.3 105.332 58.6 104.832 58.82C104.342 59.03 103.767 59.135 103.107 59.135ZM109.166 49.7C108.796 49.7 108.486 49.585 108.236 49.355C107.996 49.115 107.876 48.82 107.876 48.47C107.876 48.12 107.996 47.83 108.236 47.6C108.486 47.36 108.796 47.24 109.166 47.24C109.536 47.24 109.841 47.36 110.081 47.6C110.331 47.83 110.456 48.12 110.456 48.47C110.456 48.82 110.331 49.115 110.081 49.355C109.841 49.585 109.536 49.7 109.166 49.7ZM110.201 50.69V59H108.101V50.69H110.201ZM115.966 59.135C115.166 59.135 114.446 58.96 113.806 58.61C113.166 58.25 112.661 57.745 112.291 57.095C111.931 56.445 111.751 55.695 111.751 54.845C111.751 53.995 111.936 53.245 112.306 52.595C112.686 51.945 113.201 51.445 113.851 51.095C114.501 50.735 115.226 50.555 116.026 50.555C116.826 50.555 117.551 50.735 118.201 51.095C118.851 51.445 119.361 51.945 119.731 52.595C120.111 53.245 120.301 53.995 120.301 54.845C120.301 55.695 120.106 56.445 119.716 57.095C119.336 57.745 118.816 58.25 118.156 58.61C117.506 58.96 116.776 59.135 115.966 59.135ZM115.966 57.305C116.346 57.305 116.701 57.215 117.031 57.035C117.371 56.845 117.641 56.565 117.841 56.195C118.041 55.825 118.141 55.375 118.141 54.845C118.141 54.055 117.931 53.45 117.511 53.03C117.101 52.6 116.596 52.385 115.996 52.385C115.396 52.385 114.891 52.6 114.481 53.03C114.081 53.45 113.881 54.055 113.881 54.845C113.881 55.635 114.076 56.245 114.466 56.675C114.866 57.095 115.366 57.305 115.966 57.305ZM126.446 50.57C127.436 50.57 128.236 50.885 128.846 51.515C129.456 52.135 129.761 53.005 129.761 54.125V59H127.661V54.41C127.661 53.75 127.496 53.245 127.166 52.895C126.836 52.535 126.386 52.355 125.816 52.355C125.236 52.355 124.776 52.535 124.436 52.895C124.106 53.245 123.941 53.75 123.941 54.41V59H121.841V50.69H123.941V51.725C124.221 51.365 124.576 51.085 125.006 50.885C125.446 50.675 125.926 50.57 126.446 50.57ZM134.938 59.135C134.258 59.135 133.648 59.015 133.108 58.775C132.568 58.525 132.138 58.19 131.818 57.77C131.508 57.35 131.338 56.885 131.308 56.375H133.423C133.463 56.695 133.618 56.96 133.888 57.17C134.168 57.38 134.513 57.485 134.923 57.485C135.323 57.485 135.633 57.405 135.853 57.245C136.083 57.085 136.198 56.88 136.198 56.63C136.198 56.36 136.058 56.16 135.778 56.03C135.508 55.89 135.073 55.74 134.473 55.58C133.853 55.43 133.343 55.275 132.943 55.115C132.553 54.955 132.213 54.71 131.923 54.38C131.643 54.05 131.503 53.605 131.503 53.045C131.503 52.585 131.633 52.165 131.893 51.785C132.163 51.405 132.543 51.105 133.033 50.885C133.533 50.665 134.118 50.555 134.788 50.555C135.778 50.555 136.568 50.805 137.158 51.305C137.748 51.795 138.073 52.46 138.133 53.3H136.123C136.093 52.97 135.953 52.71 135.703 52.52C135.463 52.32 135.138 52.22 134.728 52.22C134.348 52.22 134.053 52.29 133.843 52.43C133.643 52.57 133.543 52.765 133.543 53.015C133.543 53.295 133.683 53.51 133.963 53.66C134.243 53.8 134.678 53.945 135.268 54.095C135.868 54.245 136.363 54.4 136.753 54.56C137.143 54.72 137.478 54.97 137.758 55.31C138.048 55.64 138.198 56.08 138.208 56.63C138.208 57.11 138.073 57.54 137.803 57.92C137.543 58.3 137.163 58.6 136.663 58.82C136.173 59.03 135.598 59.135 134.938 59.135Z" fill="black"/>
<path d="M229.941 137.225V139.85H233.466V141.515H229.941V144.29H233.916V146H227.841V135.515H233.916V137.225H229.941ZM240.415 146L238.705 143.42L237.19 146H234.94L237.655 141.83L234.91 137.69H237.28L238.975 140.255L240.505 137.69H242.755L240.025 141.83L242.785 146H240.415ZM246.025 138.89C246.295 138.51 246.665 138.195 247.135 137.945C247.615 137.685 248.16 137.555 248.77 137.555C249.48 137.555 250.12 137.73 250.69 138.08C251.27 138.43 251.725 138.93 252.055 139.58C252.395 140.22 252.565 140.965 252.565 141.815C252.565 142.665 252.395 143.42 252.055 144.08C251.725 144.73 251.27 145.235 250.69 145.595C250.12 145.955 249.48 146.135 248.77 146.135C248.16 146.135 247.62 146.01 247.15 145.76C246.69 145.51 246.315 145.195 246.025 144.815V149.96H243.925V137.69H246.025V138.89ZM250.42 141.815C250.42 141.315 250.315 140.885 250.105 140.525C249.905 140.155 249.635 139.875 249.295 139.685C248.965 139.495 248.605 139.4 248.215 139.4C247.835 139.4 247.475 139.5 247.135 139.7C246.805 139.89 246.535 140.17 246.325 140.54C246.125 140.91 246.025 141.345 246.025 141.845C246.025 142.345 246.125 142.78 246.325 143.15C246.535 143.52 246.805 143.805 247.135 144.005C247.475 144.195 247.835 144.29 248.215 144.29C248.605 144.29 248.965 144.19 249.295 143.99C249.635 143.79 249.905 143.505 250.105 143.135C250.315 142.765 250.42 142.325 250.42 141.815ZM261.816 141.665C261.816 141.965 261.796 142.235 261.756 142.475H255.681C255.731 143.075 255.941 143.545 256.311 143.885C256.681 144.225 257.136 144.395 257.676 144.395C258.456 144.395 259.011 144.06 259.341 143.39H261.606C261.366 144.19 260.906 144.85 260.226 145.37C259.546 145.88 258.711 146.135 257.721 146.135C256.921 146.135 256.201 145.96 255.561 145.61C254.931 145.25 254.436 144.745 254.076 144.095C253.726 143.445 253.551 142.695 253.551 141.845C253.551 140.985 253.726 140.23 254.076 139.58C254.426 138.93 254.916 138.43 255.546 138.08C256.176 137.73 256.901 137.555 257.721 137.555C258.511 137.555 259.216 137.725 259.836 138.065C260.466 138.405 260.951 138.89 261.291 139.52C261.641 140.14 261.816 140.855 261.816 141.665ZM259.641 141.065C259.631 140.525 259.436 140.095 259.056 139.775C258.676 139.445 258.211 139.28 257.661 139.28C257.141 139.28 256.701 139.44 256.341 139.76C255.991 140.07 255.776 140.505 255.696 141.065H259.641ZM265.449 138.98C265.719 138.54 266.069 138.195 266.499 137.945C266.939 137.695 267.439 137.57 267.999 137.57V139.775H267.444C266.784 139.775 266.284 139.93 265.944 140.24C265.614 140.55 265.449 141.09 265.449 141.86V146H263.349V137.69H265.449V138.98ZM271.858 139.415V143.435C271.858 143.715 271.923 143.92 272.053 144.05C272.193 144.17 272.423 144.23 272.743 144.23H273.718V146H272.398C270.628 146 269.743 145.14 269.743 143.42V139.415H268.753V137.69H269.743V135.635H271.858V137.69H273.718V139.415H271.858ZM225.166 158.53V169H223.066V158.53H225.166ZM231.846 160.57C232.836 160.57 233.636 160.885 234.246 161.515C234.856 162.135 235.161 163.005 235.161 164.125V169H233.061V164.41C233.061 163.75 232.896 163.245 232.566 162.895C232.236 162.535 231.786 162.355 231.216 162.355C230.636 162.355 230.176 162.535 229.836 162.895C229.506 163.245 229.341 163.75 229.341 164.41V169H227.241V160.69H229.341V161.725C229.621 161.365 229.976 161.085 230.406 160.885C230.846 160.675 231.326 160.57 231.846 160.57ZM240.338 169.135C239.658 169.135 239.048 169.015 238.508 168.775C237.968 168.525 237.538 168.19 237.218 167.77C236.908 167.35 236.738 166.885 236.708 166.375H238.823C238.863 166.695 239.018 166.96 239.288 167.17C239.568 167.38 239.913 167.485 240.323 167.485C240.723 167.485 241.033 167.405 241.253 167.245C241.483 167.085 241.598 166.88 241.598 166.63C241.598 166.36 241.458 166.16 241.178 166.03C240.908 165.89 240.473 165.74 239.873 165.58C239.253 165.43 238.743 165.275 238.343 165.115C237.953 164.955 237.613 164.71 237.323 164.38C237.043 164.05 236.903 163.605 236.903 163.045C236.903 162.585 237.033 162.165 237.293 161.785C237.563 161.405 237.943 161.105 238.433 160.885C238.933 160.665 239.518 160.555 240.188 160.555C241.178 160.555 241.968 160.805 242.558 161.305C243.148 161.795 243.473 162.46 243.533 163.3H241.523C241.493 162.97 241.353 162.71 241.103 162.52C240.863 162.32 240.538 162.22 240.128 162.22C239.748 162.22 239.453 162.29 239.243 162.43C239.043 162.57 238.943 162.765 238.943 163.015C238.943 163.295 239.083 163.51 239.363 163.66C239.643 163.8 240.078 163.945 240.668 164.095C241.268 164.245 241.763 164.4 242.153 164.56C242.543 164.72 242.878 164.97 243.158 165.31C243.448 165.64 243.598 166.08 243.608 166.63C243.608 167.11 243.473 167.54 243.203 167.92C242.943 168.3 242.563 168.6 242.063 168.82C241.573 169.03 240.998 169.135 240.338 169.135ZM246.396 159.7C246.026 159.7 245.716 159.585 245.466 159.355C245.226 159.115 245.106 158.82 245.106 158.47C245.106 158.12 245.226 157.83 245.466 157.6C245.716 157.36 246.026 157.24 246.396 157.24C246.766 157.24 247.071 157.36 247.311 157.6C247.561 157.83 247.686 158.12 247.686 158.47C247.686 158.82 247.561 159.115 247.311 159.355C247.071 159.585 246.766 159.7 246.396 159.7ZM247.431 160.69V169H245.331V160.69H247.431ZM252.761 160.555C253.381 160.555 253.926 160.68 254.396 160.93C254.866 161.17 255.236 161.485 255.506 161.875V160.69H257.621V169.06C257.621 169.83 257.466 170.515 257.156 171.115C256.846 171.725 256.381 172.205 255.761 172.555C255.141 172.915 254.391 173.095 253.511 173.095C252.331 173.095 251.361 172.82 250.601 172.27C249.851 171.72 249.426 170.97 249.326 170.02H251.411C251.521 170.4 251.756 170.7 252.116 170.92C252.486 171.15 252.931 171.265 253.451 171.265C254.061 171.265 254.556 171.08 254.936 170.71C255.316 170.35 255.506 169.8 255.506 169.06V167.77C255.236 168.16 254.861 168.485 254.381 168.745C253.911 169.005 253.371 169.135 252.761 169.135C252.061 169.135 251.421 168.955 250.841 168.595C250.261 168.235 249.801 167.73 249.461 167.08C249.131 166.42 248.966 165.665 248.966 164.815C248.966 163.975 249.131 163.23 249.461 162.58C249.801 161.93 250.256 161.43 250.826 161.08C251.406 160.73 252.051 160.555 252.761 160.555ZM255.506 164.845C255.506 164.335 255.406 163.9 255.206 163.54C255.006 163.17 254.736 162.89 254.396 162.7C254.056 162.5 253.691 162.4 253.301 162.4C252.911 162.4 252.551 162.495 252.221 162.685C251.891 162.875 251.621 163.155 251.411 163.525C251.211 163.885 251.111 164.315 251.111 164.815C251.111 165.315 251.211 165.755 251.411 166.135C251.621 166.505 251.891 166.79 252.221 166.99C252.561 167.19 252.921 167.29 253.301 167.29C253.691 167.29 254.056 167.195 254.396 167.005C254.736 166.805 255.006 166.525 255.206 166.165C255.406 165.795 255.506 165.355 255.506 164.845ZM264.352 160.57C264.982 160.57 265.542 160.71 266.032 160.99C266.522 161.26 266.902 161.665 267.172 162.205C267.452 162.735 267.592 163.375 267.592 164.125V169H265.492V164.41C265.492 163.75 265.327 163.245 264.997 162.895C264.667 162.535 264.217 162.355 263.647 162.355C263.067 162.355 262.607 162.535 262.267 162.895C261.937 163.245 261.772 163.75 261.772 164.41V169H259.672V157.9H261.772V161.725C262.042 161.365 262.402 161.085 262.852 160.885C263.302 160.675 263.802 160.57 264.352 160.57ZM272.034 162.415V166.435C272.034 166.715 272.099 166.92 272.229 167.05C272.369 167.17 272.599 167.23 272.919 167.23H273.894V169H272.574C270.804 169 269.919 168.14 269.919 166.42V162.415H268.929V160.69H269.919V158.635H272.034V160.69H273.894V162.415H272.034ZM278.585 169.135C277.905 169.135 277.295 169.015 276.755 168.775C276.215 168.525 275.785 168.19 275.465 167.77C275.155 167.35 274.985 166.885 274.955 166.375H277.07C277.11 166.695 277.265 166.96 277.535 167.17C277.815 167.38 278.16 167.485 278.57 167.485C278.97 167.485 279.28 167.405 279.5 167.245C279.73 167.085 279.845 166.88 279.845 166.63C279.845 166.36 279.705 166.16 279.425 166.03C279.155 165.89 278.72 165.74 278.12 165.58C277.5 165.43 276.99 165.275 276.59 165.115C276.2 164.955 275.86 164.71 275.57 164.38C275.29 164.05 275.15 163.605 275.15 163.045C275.15 162.585 275.28 162.165 275.54 161.785C275.81 161.405 276.19 161.105 276.68 160.885C277.18 160.665 277.765 160.555 278.435 160.555C279.425 160.555 280.215 160.805 280.805 161.305C281.395 161.795 281.72 162.46 281.78 163.3H279.77C279.74 162.97 279.6 162.71 279.35 162.52C279.11 162.32 278.785 162.22 278.375 162.22C277.995 162.22 277.7 162.29 277.49 162.43C277.29 162.57 277.19 162.765 277.19 163.015C277.19 163.295 277.33 163.51 277.61 163.66C277.89 163.8 278.325 163.945 278.915 164.095C279.515 164.245 280.01 164.4 280.4 164.56C280.79 164.72 281.125 164.97 281.405 165.31C281.695 165.64 281.845 166.08 281.855 166.63C281.855 167.11 281.72 167.54 281.45 167.92C281.19 168.3 280.81 168.6 280.31 168.82C279.82 169.03 279.245 169.135 278.585 169.135Z" fill="black"/>
<path d="M385.555 106L383.245 101.92H382.255V106H380.155V95.53H384.085C384.895 95.53 385.585 95.675 386.155 95.965C386.725 96.245 387.15 96.63 387.43 97.12C387.72 97.6 387.865 98.14 387.865 98.74C387.865 99.43 387.665 100.055 387.265 100.615C386.865 101.165 386.27 101.545 385.48 101.755L387.985 106H385.555ZM382.255 100.345H384.01C384.58 100.345 385.005 100.21 385.285 99.94C385.565 99.66 385.705 99.275 385.705 98.785C385.705 98.305 385.565 97.935 385.285 97.675C385.005 97.405 384.58 97.27 384.01 97.27H382.255V100.345ZM397.489 101.665C397.489 101.965 397.469 102.235 397.429 102.475H391.354C391.404 103.075 391.614 103.545 391.984 103.885C392.354 104.225 392.809 104.395 393.349 104.395C394.129 104.395 394.684 104.06 395.014 103.39H397.279C397.039 104.19 396.579 104.85 395.899 105.37C395.219 105.88 394.384 106.135 393.394 106.135C392.594 106.135 391.874 105.96 391.234 105.61C390.604 105.25 390.109 104.745 389.749 104.095C389.399 103.445 389.224 102.695 389.224 101.845C389.224 100.985 389.399 100.23 389.749 99.58C390.099 98.93 390.589 98.43 391.219 98.08C391.849 97.73 392.574 97.555 393.394 97.555C394.184 97.555 394.889 97.725 395.509 98.065C396.139 98.405 396.624 98.89 396.964 99.52C397.314 100.14 397.489 100.855 397.489 101.665ZM395.314 101.065C395.304 100.525 395.109 100.095 394.729 99.775C394.349 99.445 393.884 99.28 393.334 99.28C392.814 99.28 392.374 99.44 392.014 99.76C391.664 100.07 391.449 100.505 391.369 101.065H395.314ZM398.482 101.815C398.482 100.975 398.647 100.23 398.977 99.58C399.317 98.93 399.772 98.43 400.342 98.08C400.922 97.73 401.567 97.555 402.277 97.555C402.897 97.555 403.437 97.68 403.897 97.93C404.367 98.18 404.742 98.495 405.022 98.875V97.69H407.137V106H405.022V104.785C404.752 105.175 404.377 105.5 403.897 105.76C403.427 106.01 402.882 106.135 402.262 106.135C401.562 106.135 400.922 105.955 400.342 105.595C399.772 105.235 399.317 104.73 398.977 104.08C398.647 103.42 398.482 102.665 398.482 101.815ZM405.022 101.845C405.022 101.335 404.922 100.9 404.722 100.54C404.522 100.17 404.252 99.89 403.912 99.7C403.572 99.5 403.207 99.4 402.817 99.4C402.427 99.4 402.067 99.495 401.737 99.685C401.407 99.875 401.137 100.155 400.927 100.525C400.727 100.885 400.627 101.315 400.627 101.815C400.627 102.315 400.727 102.755 400.927 103.135C401.137 103.505 401.407 103.79 401.737 103.99C402.077 104.19 402.437 104.29 402.817 104.29C403.207 104.29 403.572 104.195 403.912 104.005C404.252 103.805 404.522 103.525 404.722 103.165C404.922 102.795 405.022 102.355 405.022 101.845ZM411.288 94.9V106H409.188V94.9H411.288ZM419.753 99.76V101.53H413.393V99.76H419.753ZM429.233 95.53V97.225H426.443V106H424.343V97.225H421.553V95.53H429.233ZM431.83 96.7C431.46 96.7 431.15 96.585 430.9 96.355C430.66 96.115 430.54 95.82 430.54 95.47C430.54 95.12 430.66 94.83 430.9 94.6C431.15 94.36 431.46 94.24 431.83 94.24C432.2 94.24 432.505 94.36 432.745 94.6C432.995 94.83 433.12 95.12 433.12 95.47C433.12 95.82 432.995 96.115 432.745 96.355C432.505 96.585 432.2 96.7 431.83 96.7ZM432.865 97.69V106H430.765V97.69H432.865ZM445.26 97.57C446.28 97.57 447.1 97.885 447.72 98.515C448.35 99.135 448.665 100.005 448.665 101.125V106H446.565V101.41C446.565 100.76 446.4 100.265 446.07 99.925C445.74 99.575 445.29 99.4 444.72 99.4C444.15 99.4 443.695 99.575 443.355 99.925C443.025 100.265 442.86 100.76 442.86 101.41V106H440.76V101.41C440.76 100.76 440.595 100.265 440.265 99.925C439.935 99.575 439.485 99.4 438.915 99.4C438.335 99.4 437.875 99.575 437.535 99.925C437.205 100.265 437.04 100.76 437.04 101.41V106H434.94V97.69H437.04V98.695C437.31 98.345 437.655 98.07 438.075 97.87C438.505 97.67 438.975 97.57 439.485 97.57C440.135 97.57 440.715 97.71 441.225 97.99C441.735 98.26 442.13 98.65 442.41 99.16C442.68 98.68 443.07 98.295 443.58 98.005C444.1 97.715 444.66 97.57 445.26 97.57ZM458.383 101.665C458.383 101.965 458.363 102.235 458.323 102.475H452.248C452.298 103.075 452.508 103.545 452.878 103.885C453.248 104.225 453.703 104.395 454.243 104.395C455.023 104.395 455.578 104.06 455.908 103.39H458.173C457.933 104.19 457.473 104.85 456.793 105.37C456.113 105.88 455.278 106.135 454.288 106.135C453.488 106.135 452.768 105.96 452.128 105.61C451.498 105.25 451.003 104.745 450.643 104.095C450.293 103.445 450.118 102.695 450.118 101.845C450.118 100.985 450.293 100.23 450.643 99.58C450.993 98.93 451.483 98.43 452.113 98.08C452.743 97.73 453.468 97.555 454.288 97.555C455.078 97.555 455.783 97.725 456.403 98.065C457.033 98.405 457.518 98.89 457.858 99.52C458.208 100.14 458.383 100.855 458.383 101.665ZM456.208 101.065C456.198 100.525 456.003 100.095 455.623 99.775C455.243 99.445 454.778 99.28 454.228 99.28C453.708 99.28 453.268 99.44 452.908 99.76C452.558 100.07 452.343 100.505 452.263 101.065H456.208ZM381.976 118.53V129H379.876V118.53H381.976ZM388.656 120.57C389.646 120.57 390.446 120.885 391.056 121.515C391.666 122.135 391.971 123.005 391.971 124.125V129H389.871V124.41C389.871 123.75 389.706 123.245 389.376 122.895C389.046 122.535 388.596 122.355 388.026 122.355C387.446 122.355 386.986 122.535 386.646 122.895C386.316 123.245 386.151 123.75 386.151 124.41V129H384.051V120.69H386.151V121.725C386.431 121.365 386.786 121.085 387.216 120.885C387.656 120.675 388.136 120.57 388.656 120.57ZM396.413 122.415V126.435C396.413 126.715 396.478 126.92 396.608 127.05C396.748 127.17 396.978 127.23 397.298 127.23H398.273V129H396.953C395.183 129 394.298 128.14 394.298 126.42V122.415H393.308V120.69H394.298V118.635H396.413V120.69H398.273V122.415H396.413ZM407.509 124.665C407.509 124.965 407.489 125.235 407.449 125.475H401.374C401.424 126.075 401.634 126.545 402.004 126.885C402.374 127.225 402.829 127.395 403.369 127.395C404.149 127.395 404.704 127.06 405.034 126.39H407.299C407.059 127.19 406.599 127.85 405.919 128.37C405.239 128.88 404.404 129.135 403.414 129.135C402.614 129.135 401.894 128.96 401.254 128.61C400.624 128.25 400.129 127.745 399.769 127.095C399.419 126.445 399.244 125.695 399.244 124.845C399.244 123.985 399.419 123.23 399.769 122.58C400.119 121.93 400.609 121.43 401.239 121.08C401.869 120.73 402.594 120.555 403.414 120.555C404.204 120.555 404.909 120.725 405.529 121.065C406.159 121.405 406.644 121.89 406.984 122.52C407.334 123.14 407.509 123.855 407.509 124.665ZM405.334 124.065C405.324 123.525 405.129 123.095 404.749 122.775C404.369 122.445 403.904 122.28 403.354 122.28C402.834 122.28 402.394 122.44 402.034 122.76C401.684 123.07 401.469 123.505 401.389 124.065H405.334ZM411.141 121.98C411.411 121.54 411.761 121.195 412.191 120.945C412.631 120.695 413.131 120.57 413.691 120.57V122.775H413.136C412.476 122.775 411.976 122.93 411.636 123.24C411.306 123.55 411.141 124.09 411.141 124.86V129H409.041V120.69H411.141V121.98ZM414.566 124.815C414.566 123.975 414.731 123.23 415.061 122.58C415.401 121.93 415.856 121.43 416.426 121.08C417.006 120.73 417.651 120.555 418.361 120.555C418.981 120.555 419.521 120.68 419.981 120.93C420.451 121.18 420.826 121.495 421.106 121.875V120.69H423.221V129H421.106V127.785C420.836 128.175 420.461 128.5 419.981 128.76C419.511 129.01 418.966 129.135 418.346 129.135C417.646 129.135 417.006 128.955 416.426 128.595C415.856 128.235 415.401 127.73 415.061 127.08C414.731 126.42 414.566 125.665 414.566 124.815ZM421.106 124.845C421.106 124.335 421.006 123.9 420.806 123.54C420.606 123.17 420.336 122.89 419.996 122.7C419.656 122.5 419.291 122.4 418.901 122.4C418.511 122.4 418.151 122.495 417.821 122.685C417.491 122.875 417.221 123.155 417.011 123.525C416.811 123.885 416.711 124.315 416.711 124.815C416.711 125.315 416.811 125.755 417.011 126.135C417.221 126.505 417.491 126.79 417.821 126.99C418.161 127.19 418.521 127.29 418.901 127.29C419.291 127.29 419.656 127.195 419.996 127.005C420.336 126.805 420.606 126.525 420.806 126.165C421.006 125.795 421.106 125.355 421.106 124.845ZM424.732 124.845C424.732 123.985 424.907 123.235 425.257 122.595C425.607 121.945 426.092 121.445 426.712 121.095C427.332 120.735 428.042 120.555 428.842 120.555C429.872 120.555 430.722 120.815 431.392 121.335C432.072 121.845 432.527 122.565 432.757 123.495H430.492C430.372 123.135 430.167 122.855 429.877 122.655C429.597 122.445 429.247 122.34 428.827 122.34C428.227 122.34 427.752 122.56 427.402 123C427.052 123.43 426.877 124.045 426.877 124.845C426.877 125.635 427.052 126.25 427.402 126.69C427.752 127.12 428.227 127.335 428.827 127.335C429.677 127.335 430.232 126.955 430.492 126.195H432.757C432.527 127.095 432.072 127.81 431.392 128.34C430.712 128.87 429.862 129.135 428.842 129.135C428.042 129.135 427.332 128.96 426.712 128.61C426.092 128.25 425.607 127.75 425.257 127.11C424.907 126.46 424.732 125.705 424.732 124.845ZM436.74 122.415V126.435C436.74 126.715 436.805 126.92 436.935 127.05C437.075 127.17 437.305 127.23 437.625 127.23H438.6V129H437.28C435.51 129 434.625 128.14 434.625 126.42V122.415H433.635V120.69H434.625V118.635H436.74V120.69H438.6V122.415H436.74ZM441.176 119.7C440.806 119.7 440.496 119.585 440.246 119.355C440.006 119.115 439.886 118.82 439.886 118.47C439.886 118.12 440.006 117.83 440.246 117.6C440.496 117.36 440.806 117.24 441.176 117.24C441.546 117.24 441.851 117.36 442.091 117.6C442.341 117.83 442.466 118.12 442.466 118.47C442.466 118.82 442.341 119.115 442.091 119.355C441.851 119.585 441.546 119.7 441.176 119.7ZM442.211 120.69V129H440.111V120.69H442.211ZM447.975 129.135C447.175 129.135 446.455 128.96 445.815 128.61C445.175 128.25 444.67 127.745 444.3 127.095C443.94 126.445 443.76 125.695 443.76 124.845C443.76 123.995 443.945 123.245 444.315 122.595C444.695 121.945 445.21 121.445 445.86 121.095C446.51 120.735 447.235 120.555 448.035 120.555C448.835 120.555 449.56 120.735 450.21 121.095C450.86 121.445 451.37 121.945 451.74 122.595C452.12 123.245 452.31 123.995 452.31 124.845C452.31 125.695 452.115 126.445 451.725 127.095C451.345 127.745 450.825 128.25 450.165 128.61C449.515 128.96 448.785 129.135 447.975 129.135ZM447.975 127.305C448.355 127.305 448.71 127.215 449.04 127.035C449.38 126.845 449.65 126.565 449.85 126.195C450.05 125.825 450.15 125.375 450.15 124.845C450.15 124.055 449.94 123.45 449.52 123.03C449.11 122.6 448.605 122.385 448.005 122.385C447.405 122.385 446.9 122.6 446.49 123.03C446.09 123.45 445.89 124.055 445.89 124.845C445.89 125.635 446.085 126.245 446.475 126.675C446.875 127.095 447.375 127.305 447.975 127.305ZM458.456 120.57C459.446 120.57 460.246 120.885 460.856 121.515C461.466 122.135 461.771 123.005 461.771 124.125V129H459.671V124.41C459.671 123.75 459.506 123.245 459.176 122.895C458.846 122.535 458.396 122.355 457.826 122.355C457.246 122.355 456.786 122.535 456.446 122.895C456.116 123.245 455.951 123.75 455.951 124.41V129H453.851V120.69H455.951V121.725C456.231 121.365 456.586 121.085 457.016 120.885C457.456 120.675 457.936 120.57 458.456 120.57Z" fill="black"/>
<defs>
<linearGradient id="paint0_linear_5_4796" x1="92.5" y1="0" x2="92.5" y2="182" gradientUnits="userSpaceOnUse">
<stop stop-color="#E3E4EC"/>
<stop offset="1" stop-color="#F3F5FF" stop-opacity="0"/>
</linearGradient>
<linearGradient id="paint1_linear_5_4796" x1="250.5" y1="106" x2="250.5" y2="288" gradientUnits="userSpaceOnUse">
<stop stop-color="#E3E4EC"/>
<stop offset="1" stop-color="#F3F5FF" stop-opacity="0"/>
</linearGradient>
<linearGradient id="paint2_linear_5_4796" x1="406.5" y1="78" x2="406.5" y2="260" gradientUnits="userSpaceOnUse">
<stop stop-color="#E3E4EC"/>
<stop offset="1" stop-color="#F3F5FF" stop-opacity="0"/>
</linearGradient>
</defs>
</svg>
